<?xml version="1.0" standalone="no"?>
<!DOCTYPE svg PUBLIC "-//W3C//DTD SVG 20010904//EN"
 "http://www.w3.org/TR/2001/REC-SVG-20010904/DTD/svg10.dtd">
<svg version="1.0" xmlns="http://www.w3.org/2000/svg"
 width="317.000000pt" height="280.000000pt" viewBox="0 0 317.000000 280.000000"
 preserveAspectRatio="xMidYMid meet">

<g transform="translate(0.000000,280.000000) scale(0.100000,-0.100000)" fill="#000000" stroke="none">
    <!-- Original path for the glass, you can keep it unchanged -->
    <path d="M1740 2111 c63 -6 65 -7 87 -46 31 -55 55 -165 55 -253 0 -125 -60 215 -180 270 -142 64 -318 1 -388 144 -23 47 -26 65 -25 146 1 51 6 111 11 133 14 57 11 76 -5 34 -21 -59 -38 -185 -32 -238 14 -121 101 -229 217 -272 44 -16 61 -28 69 -48 5 -14 12 -102 14 -196 3 -93 10 -187 16 -207 15 -47 57 -83 126 -104 30 -10 55 -21 55 -26 0 -4 -64 -9 -142 -10 -126 -1 -134 -2 -68 -8 139 -13 256 -11 269 4 16 18 -14 39 -79 56 -60 16 -104 44 -118 75 -16 34 -16 385 -1 419 8 17 29 31 70 45 76 28 158 103 190 173 43 95 25 293 -38 425 l-15 33 -77 -2 -76 -1 65 -6z"/>

    <!-- Modify the fill attribute to change the liquid color to red -->
    <path d="M1535 1814 c99 -35 147 -40 199 -18 17 7 18 4 12 -31 -23 -121 -137 -215 -261 -215 -129 0 -253 108 -258 223 -2 40 -1 41 43 58 73 29 150 24 265 -17z" fill="red"/>
</g>
</svg>
